HIERARCHY
ROOT Hips
{
	OFFSET 0.000000 0.000000 0.000000
	CHANNELS 6 Xposition Yposition Zposition Zrotation Yrotation Xrotation 
	JOINT LHipJoint
	{
		OFFSET 0.000000 0.000000 0.000000
		CHANNELS 3 Zrotation Yrotation Xrotation
		JOINT LeftUpLeg
		{
			OFFSET 1.363060 -1.794630 0.839290
			CHANNELS 3 Zrotation Yrotation Xrotation
			JOINT LeftLeg
			{
				OFFSET 2.448110 -6.726130 0.000000
				CHANNELS 3 Zrotation Yrotation Xrotation
				JOINT LeftFoot
				{
					OFFSET 2.562200 -7.039590 0.000000
					CHANNELS 3 Zrotation Yrotation Xrotation
					JOINT LeftToeBase
					{
						OFFSET 0.157640 -0.433110 2.322550
						CHANNELS 3 Zrotation Yrotation Xrotation
						End Site
						{
							OFFSET 0.000000 0.000000 0.000000
						}
					}
				}
			}
		}
	}
	JOINT RHipJoint
	{
		OFFSET 0.000000 0.000000 0.000000
		CHANNELS 3 Zrotation Yrotation Xrotation
		JOINT RightUpLeg
		{
			OFFSET -1.305520 -1.794630 0.839290
			CHANNELS 3 Zrotation Yrotation Xrotation
			JOINT RightLeg
			{
				OFFSET -2.542530 -6.985550 0.000000
				CHANNELS 3 Zrotation Yrotation Xrotation
				JOINT RightFoot
				{
					OFFSET -2.568260 -7.056230 0.000000
					CHANNELS 3 Zrotation Yrotation Xrotation
					JOINT RightToeBase
					{
						OFFSET -0.164730 -0.452590 2.363150
						CHANNELS 3 Zrotation Yrotation Xrotation
						End Site
						{
							OFFSET 0.000000 0.000000 0.000000
						}
					}
				}
			}
		}
	}
	JOINT LowerBack
	{
		OFFSET 0.000000 0.000000 0.000000
		CHANNELS 3 Zrotation Yrotation Xrotation
		JOINT Spine
		{
			OFFSET 0.028270 2.035590 -0.193380
			CHANNELS 3 Zrotation Yrotation Xrotation
			JOINT Spine1
			{
				OFFSET 0.056720 2.048850 -0.042750
				CHANNELS 3 Zrotation Yrotation Xrotation
				JOINT Neck
				{
					OFFSET 0.000000 0.000000 0.000000
					CHANNELS 3 Zrotation Yrotation Xrotation
					JOINT Neck1
					{
						OFFSET -0.054170 1.746240 0.172020
						CHANNELS 3 Zrotation Yrotation Xrotation
						JOINT Head
						{
							OFFSET 0.104070 1.761360 -0.123970
							CHANNELS 3 Zrotation Yrotation Xrotation
							End Site
							{
								OFFSET 0.000000 0.000000 0.000000
							}
						}
					}
				}
				JOINT LeftShoulder
				{
					OFFSET 0.000000 0.000000 0.000000
					CHANNELS 3 Zrotation Yrotation Xrotation
					JOINT LeftArm
					{
						OFFSET 3.362410 1.200890 -0.311210
						CHANNELS 3 Zrotation Yrotation Xrotation
						JOINT LeftForeArm
						{
							OFFSET 4.983000 -0.000000 -0.000000
							CHANNELS 3 Zrotation Yrotation Xrotation
							JOINT LeftHand
							{
								OFFSET 3.483560 -0.000000 -0.000000
								CHANNELS 3 Zrotation Yrotation Xrotation
								JOINT LeftFingerBase
								{
									OFFSET 0.000000 0.000000 0.000000
									CHANNELS 3 Zrotation Yrotation Xrotation
									JOINT LeftHandIndex1
									{
										OFFSET 0.715260 -0.000000 -0.000000
										CHANNELS 3 Zrotation Yrotation Xrotation
										End Site
										{
											OFFSET 0.000000 0.000000 0.000000
										}
									}
								}
								JOINT LThumb
								{
									OFFSET 0.000000 0.000000 0.000000
									CHANNELS 3 Zrotation Yrotation Xrotation
									End Site
									{
										OFFSET 0.000000 0.000000 0.000000
									}
								}
							}
						}
					}
				}
				JOINT RightShoulder
				{
					OFFSET 0.000000 0.000000 0.000000
					CHANNELS 3 Zrotation Yrotation Xrotation
					JOINT RightArm
					{
						OFFSET -3.136600 1.374050 -0.404650
						CHANNELS 3 Zrotation Yrotation Xrotation
						JOINT RightForeArm
						{
							OFFSET -5.241900 -0.000000 -0.000000
							CHANNELS 3 Zrotation Yrotation Xrotation
							JOINT RightHand
							{
								OFFSET -3.444170 -0.000000 -0.000000
								CHANNELS 3 Zrotation Yrotation Xrotation
								JOINT RightFingerBase
								{
									OFFSET 0.000000 0.000000 0.000000
									CHANNELS 3 Zrotation Yrotation Xrotation
									JOINT RightHandIndex1
									{
										OFFSET -0.622530 -0.000000 -0.000000
										CHANNELS 3 Zrotation Yrotation Xrotation
										End Site
										{
											OFFSET 0.000000 0.000000 0.000000
										}
									}
								}
								JOINT RThumb
								{
									OFFSET 0.000000 0.000000 0.000000
									CHANNELS 3 Zrotation Yrotation Xrotation
									End Site
									{
										OFFSET 0.000000 0.000000 0.000000
									}
								}
							}
						}
					}
				}
			}
		}
	}
}
MOTION
Frames: 8
Frame Time: 0.008333
36.394722 17.922277 -3.342697 43.367591 -89.357225 -34.053926 -3.156862 2.125614 0.742760 -11.399269 -13.222710 -20.017610 0.740336 9.804099 29.387693 -2.592594 9.968420 -1.304973 0.037000 -1.241700 -3.414200 -0.764377 -3.202067 0.739825 15.542551 13.073938 -17.210704 -1.953165 -9.407294 30.625737 -0.928339 -1.367970 -16.891685 -3.845300 -11.951600 35.561100 -1.732099 2.070123 -3.553162 0.743792 2.291794 -3.868942 1.388357 1.233609 1.364728 10.569539 15.987186 1.248607 -14.904636 22.607724 6.894960 -5.185900 11.344500 3.679500 -6.589679 -13.173171 1.477989 -48.780514 50.831815 45.007146 107.518391 -49.356626 -75.952108 0.386699 -0.340769 -5.346990 27.613095 -6.414016 -3.086000 -7.125000 0.000000 0.000000 0.397100 23.230300 -0.208300 5.467546 14.345574 4.913566 73.796114 -34.854092 8.854875 -48.135132 43.095562 -21.819081 1.298648 -0.045584 -1.855091 -4.463933 -48.760626 4.334300 7.125000 0.000000 0.000000 56.665800 -71.574500 -39.377600 
36.381052 17.911431 -3.385062 32.247748 -89.037289 -23.141393 -3.286176 2.199360 0.804399 -11.191166 -13.475504 -19.830334 0.767922 9.865760 29.518964 -2.596914 9.990063 -1.374593 0.045400 -1.375700 -3.783300 -0.898710 -3.197452 0.710403 15.882337 12.767806 -16.992604 -2.005160 -9.427324 30.833038 -0.955519 -1.426870 -17.229951 -3.789100 -11.874400 35.289100 -1.955160 2.085874 -3.447526 0.674150 2.338943 -3.801182 1.325474 1.267804 1.442849 10.584497 16.600528 1.160703 -14.621250 23.359131 6.656042 -5.045700 11.720200 3.725200 -6.555527 -13.163672 1.570541 -47.737615 50.264182 44.982414 108.512585 -49.363206 -76.862768 0.352631 -0.366555 -5.138467 27.556737 -6.785194 -3.259900 -7.125000 0.000000 0.000000 0.366100 22.843100 -0.195300 5.464945 14.336515 4.882938 74.613017 -34.670081 7.997508 -47.986169 43.076068 -21.774891 1.293898 -0.036054 -1.878934 -4.427229 -49.812371 4.372500 7.125000 0.000000 0.000000 59.540100 -72.078200 -42.311900 
36.372806 17.905105 -3.425053 28.186026 -88.813183 -18.896664 -3.321960 2.172376 0.778646 -11.024753 -13.631603 -20.004652 0.793833 9.914515 29.610229 -2.649401 10.148445 -1.357506 0.062000 -1.606500 -4.419200 -0.972139 -3.181652 0.696805 16.049506 12.567144 -17.279609 -2.034938 -9.472348 30.988663 -0.934516 -1.585036 -17.349793 -3.638200 -11.662700 34.549000 -2.171393 2.174193 -3.697154 0.611691 2.461923 -3.902147 1.328965 1.333527 1.450075 10.439381 17.119048 0.933446 -14.227452 24.021519 6.765003 -4.842300 12.039200 3.825100 -6.534004 -13.162445 1.602778 -46.723980 50.012358 45.168941 109.897762 -49.291224 -78.177185 0.321462 -0.400698 -4.512492 27.571558 -6.763036 -3.237700 -7.125000 0.000000 0.000000 0.401300 22.902800 -0.213500 5.462998 14.329036 4.882913 75.522104 -34.835088 7.058072 -48.025499 43.096585 -21.824315 1.291773 -0.036647 -1.891080 -4.383373 -50.235514 4.364500 7.125000 0.000000 0.000000 60.751700 -72.255100 -43.533100 
36.362525 17.899118 -3.457928 26.044623 -88.559491 -16.609169 -3.348046 2.144142 0.754280 -10.936510 -13.803242 -20.125127 0.812661 9.946240 29.689789 -2.641028 10.127862 -1.440892 0.071900 -1.730100 -4.760300 -1.024401 -3.174202 0.693083 16.157706 12.319455 -17.561165 -2.055635 -9.515394 31.117433 -0.883237 -1.861899 -17.438819 -3.366100 -11.265300 33.180000 -2.425923 2.193338 -3.981859 0.648669 2.493546 -3.974953 1.515309 1.350591 1.588282 10.581568 17.535753 1.813416 -14.521679 24.502431 6.017568 -4.993400 12.322300 3.620600 -6.522689 -13.202590 1.638009 -46.412039 49.800973 44.935827 111.106100 -49.156523 -79.354291 0.284677 -0.442672 -4.006529 27.604714 -7.162849 -3.430200 -7.125000 0.000000 0.000000 0.435700 22.497800 -0.235800 5.471061 14.302555 4.887237 75.988503 -35.084528 6.455292 -48.261330 43.158992 -21.955055 1.293925 -0.051443 -1.947061 -4.744460 -49.603081 4.599300 7.125000 0.000000 0.000000 58.662000 -72.080900 -41.577600 
36.345241 17.895390 -3.487639 23.401305 -88.379670 -13.928580 -3.384795 2.131545 0.747652 -10.794725 -13.972738 -20.111979 0.829008 9.968416 29.752420 -2.636549 10.115051 -1.506030 0.077500 -1.795800 -4.941700 -1.076759 -3.186670 0.689266 16.350350 12.173583 -17.660997 -2.076261 -9.549984 31.244128 -0.831305 -2.188345 -17.622222 -3.061800 -10.794400 31.589500 -2.535528 2.229572 -4.278245 0.683438 2.550895 -3.928508 1.600592 1.374138 1.877653 10.303984 18.069236 2.052912 -14.586072 25.110371 5.434527 -4.965700 12.635600 3.500700 -6.507554 -13.223574 1.718848 -46.182539 49.350190 44.543283 111.756656 -49.108196 -79.951845 0.255514 -0.477718 -3.469686 28.053627 -7.630177 -3.724500 -7.125000 0.000000 0.000000 0.761800 21.981800 -0.421300 5.471983 14.250419 4.867699 76.425256 -35.159908 5.878251 -48.424944 43.212548 -22.034373 1.293869 -0.064296 -1.915043 -4.949637 -48.908903 4.705100 7.125000 0.000000 0.000000 56.592300 -71.803600 -39.562900 
36.329764 17.896293 -3.519158 19.144881 -88.063640 -9.632187 -3.439645 2.112271 0.737139 -10.552147 -14.257235 -20.085997 0.848982 9.996823 29.838960 -2.563435 9.902322 -1.617532 0.068600 -1.689200 -4.647500 -1.149412 -3.216842 0.695882 16.626575 11.947408 -17.692293 -2.089061 -9.564157 31.325810 -0.799434 -2.464281 -17.877736 -2.851400 -10.450500 30.448300 -2.549187 2.284400 -4.420921 0.632298 2.632799 -3.966887 1.492101 1.413229 1.975908 10.464200 18.429195 2.429788 -14.916022 25.535895 4.893685 -5.075700 12.870200 3.425800 -6.484501 -13.237141 1.793990 -45.352045 48.889218 44.626027 111.910176 -49.179528 -80.014240 0.202352 -0.507249 -2.604698 28.989845 -8.802118 -4.498100 -7.125000 0.000000 0.000000 1.404700 20.616100 -0.820400 5.459555 14.226849 4.861530 77.279546 -35.295285 5.085624 -48.541098 43.255049 -22.101224 1.295676 -0.062441 -1.897653 -4.445376 -48.655886 4.310200 7.125000 0.000000 0.000000 56.366600 -71.504600 -39.058000 
36.316998 17.893695 -3.552146 14.997061 -87.589239 -5.551449 -3.491727 2.105767 0.727614 -10.300782 -14.640554 -19.980736 0.894370 10.048944 30.017718 -2.482511 9.662646 -1.657249 0.074700 -1.762600 -4.850100 -1.206460 -3.275121 0.727970 16.890804 11.716834 -17.440833 -2.086097 -9.526128 31.268854 -0.927078 -2.090411 -18.225228 -3.140400 -10.918900 32.007000 -2.484802 2.321098 -4.300479 0.512252 2.686336 -4.079729 1.216707 1.445501 1.823788 10.860224 18.739411 3.040512 -15.263712 25.885833 4.198829 -5.253900 13.083900 3.307600 -6.458385 -13.265938 1.836834 -44.109404 48.596368 45.072399 113.305483 -49.063756 -81.271323 0.214320 -0.535633 -2.931323 29.543391 -8.123180 -4.202400 -7.125000 0.000000 0.000000 1.847500 21.385800 -1.047100 5.444650 14.216979 4.871154 78.428775 -35.458984 4.064282 -48.566558 43.271386 -22.134593 1.296731 -0.062793 -1.877515 -4.225722 -48.947482 4.165100 7.125000 0.000000 0.000000 57.310100 -71.578800 -39.911000 
36.306040 17.881946 -3.579259 13.411023 -87.637033 -4.019171 -3.491695 2.105329 0.730493 -10.152245 -14.655892 -19.927536 0.918453 10.077867 30.096976 -2.532671 9.807046 -1.651777 0.085200 -1.882600 -5.181300 -1.220644 -3.298520 0.730427 17.056098 11.808558 -17.305821 -2.122616 -9.548941 31.368872 -1.113347 -1.338193 -18.362523 -3.597400 -11.604500 34.346900 -2.363674 2.483357 -4.317845 0.413843 2.900591 -4.080201 1.004785 1.549487 1.859832 11.201804 19.035442 3.157978 -15.721929 26.276523 3.856948 -5.373200 13.291300 3.355000 -6.440260 -13.254730 1.901447 -43.373546 48.172515 45.031976 114.391298 -48.935144 -82.255958 0.231375 -0.534299 -2.979360 29.100577 -7.062490 -3.546700 -7.125000 0.000000 0.000000 1.580000 22.626500 -0.850800 5.426136 14.205010 4.866331 79.241082 -35.508620 3.276296 -48.576281 43.298579 -22.163254 1.293843 -0.071245 -1.813870 -4.530897 -49.204545 4.409600 7.125000 0.000000 0.000000 57.716300 -71.806300 -40.492400 
